<svg width="842" height="842" viewBox="0 0 842 842" fill="none" xmlns="http://www.w3.org/2000/svg">
<rect width="842" height="842" rx="194" fill="url(#paint0_linear)"/>
<path d="M676.5 421C676.5 562.111 562.107 676.5 421 676.5C412.509 676.5 404.123 676.071 395.846 675.26C393.422 675.02 391.429 673.248 390.976 670.872C370.807 564.64 285.137 481.623 177.563 465.4C172.446 464.63 168.498 460.509 167.804 455.367C166.288 444.127 165.5 432.657 165.5 421C165.5 279.893 279.889 165.5 421 165.5C561.763 165.5 676.5 280.237 676.5 421Z" fill="#D2DCD7" stroke="black"/>
<path d="M502.029 260.775C513.549 272.295 513.549 290.975 502.029 302.494L222.573 581.95C193.517 546.171 173.939 502.391 167.672 454.418L361.314 260.775C400.17 221.92 463.17 221.92 502.029 260.775Z" fill="#EBE1D2" stroke="black"/>
<path d="M502.029 260.775C513.549 272.295 513.549 290.975 502.029 302.494L222.573 581.95C204.934 560.228 190.784 535.564 180.989 508.8L414.182 275.604C433.466 256.323 458.697 246.61 483.972 246.469C490.391 250.442 496.46 255.206 502.029 260.775Z" fill="#E3E1DF" stroke="black"/>
<path d="M266.646 624.598L266.344 624.996L266.646 624.598C245.209 608.321 226.425 588.742 211.047 566.609C209.669 547.204 216.374 527.337 231.205 512.506L357.354 386.357L528.193 215.522C555.334 188.381 599.338 188.381 626.478 215.522C653.619 242.662 653.619 286.666 626.478 313.807L455.643 484.646L329.494 610.795C325.829 614.459 320.254 617.303 313.856 619.466C307.467 621.626 300.303 623.09 293.503 624.021C286.704 624.951 280.283 625.346 275.385 625.371C272.936 625.383 270.875 625.303 269.343 625.152C268.576 625.077 267.951 624.985 267.48 624.881C266.984 624.772 266.733 624.664 266.646 624.598Z" fill="#D7CECC" stroke="black"/>
<path d="M559.303 246.635L559.304 246.634C559.846 246.088 560.396 245.557 560.954 245.038L560.955 245.037C571.98 234.705 584.25 231.003 595.808 231.919C607.377 232.837 618.267 238.386 626.497 246.616C634.727 254.847 640.277 265.736 641.194 277.306C642.11 288.863 638.408 301.134 628.077 312.158C627.553 312.716 627.022 313.263 626.479 313.807L455.643 484.646L329.494 610.795C328.951 611.338 328.401 611.869 327.842 612.393C316.817 622.724 304.547 626.425 292.989 625.509C281.42 624.591 270.53 619.042 262.3 610.812C254.069 602.581 248.52 591.692 247.603 580.122C246.686 568.564 250.389 556.293 260.72 545.268C261.245 544.712 261.776 544.161 262.318 543.619L559.303 246.635Z" fill="#E7DDDA" stroke="black"/>
<path d="M397.784 675.438C348.649 671.014 303.532 652.683 266.387 624.402L545.162 345.627C556.682 334.107 575.361 334.107 586.881 345.627C625.736 384.486 625.736 447.486 586.881 486.342L397.784 675.438Z" fill="#EBE1D2" stroke="black"/>
<path d="M586.881 345.627C596.861 355.607 604.272 367.182 609.124 379.527C604.807 396.058 596.177 411.694 583.225 424.646L343.385 664.486C315.3 655.537 289.324 641.865 266.387 624.402L545.162 345.627C556.682 334.107 575.361 334.107 586.881 345.627Z" stroke="black"/>
<defs>
<linearGradient id="paint0_linear" x1="421" y1="0" x2="421" y2="842" gradientUnits="userSpaceOnUse">
<stop stop-color="#6D92B5"/>
<stop offset="1" stop-color="#4B99B1"/>
</linearGradient>
</defs>
</svg>
